With: Aaron Eckhart, Michelle Rodriguez and Bridget Moynahan

Al jaren worden er over de hele wereld ufo’s waargenomen en gedocumenteerd: Buenos Aires, Seoul, Frankrijk, Duitsland, China. Maar in 2011 worden die vage waarnemingen keiharde werkelijkheid wanneer de aarde wordt aangevallen door onbekende krachten. Terwijl overal ter wereld grote steden worden verwoest, houdt alleen Los Angeles nog stand in een strijd die nooit voor mogelijk werd gehouden. Een sergeant van de Marine (Aaron Eckhart) en zijn nieuwe peloton moeten een halt zien toe te roepen aan een vijand die alles overtreft waar ze ooit tegen hebben gestreden.

A Marine Staff Sergeant who has just had his retirement approved goes back into the line of duty in order to assist a 2nd Lieutenant and his platoon as they fight to reclaim the city of Los Angeles from alien invaders.

------------------ Dutch Friends ------------------
You can find my Friends at: http://www.Film-Test.nl 
------ They got my dutchs subs ---- and more ------

General:

Complete name                    : World Invasion\Battle Los Angeles.avi
Format                           : AVI
Format/Info                      : Audio Video Interleave
File size                        : 1.75 GiB
Duration                         : 1h 51mn
Overall bit rate                 : 2 246 Kbps

Video:

Format                           : MPEG-4 Visual
Format profile                   : Simple@L3
Format settings, BVOP            : No
Format settings, QPel            : No
Format settings, GMC             : No warppoints
Format settings, Matrix          : Default (H.263)
Codec ID                         : XVID
Codec ID/Hint                    : XviD
Duration                         : 1h 51mn
Bit rate                         : 1 787 Kbps
Width                            : 720 pixels
Height                           : 304 pixels
Display aspect ratio             : 2.35:1
Frame rate                       : 25.000 fps
Color space                      : YUV
Chroma subsampling               : 4:2:0
Bit depth                        : 8 bits
Scan type                        : Progressive
Bits/(Pixel*Frame)               : 0.327
Stream size                      : 1.39 GiB (80%)
Writing library                  : XviD 1.1.2 (UTC 2006-11-01)

Audio:

Format                           : AC-3
Format/Info                      : Audio Coding 3
Mode extension                   : CM (complete main)
Codec ID                         : 2000
Duration                         : 1h 51mn
Bit rate mode                    : Constant
Bit rate                         : 448 Kbps
Channel(s)                       : 6 channels
Channel positions                : Front: L C R, Side: L R, LFE
Sampling rate                    : 48.0 KHz
Bit depth                        : 16 bits
Stream size                      : 357 MiB (20%)
Alignment                        : Aligned on interleaves
Interleave, duration             : 32 ms (0.80 video frame)
Interleave, preload duration     : 768 ms

